<?xml version="1.0" encoding="UTF-8"?>
<svg width="512" height="512" viewBox="0 0 512 512" xmlns="http://www.w3.org/2000/svg">
  <defs>
    <filter id="grain" x="0" y="0" width="100%" height="100%">
      <feTurbulence type="fractalNoise" baseFrequency="0.85" numOctaves="4" stitchTiles="stitch" result="noise"/>
      <feColorMatrix type="saturate" values="0" in="noise" result="mono"/>
      <feBlend in="SourceGraphic" in2="mono" mode="overlay"/>
    </filter>
  </defs>
  <!-- Dark background -->
  <rect width="512" height="512" fill="#0a0a0a"/>
  <!-- Grain -->
  <rect width="512" height="512" filter="url(#grain)" opacity="0.06"/>
  <!-- Circle ring -->
  <circle cx="256.0" cy="256.0" r="225.3" fill="none" stroke="#f0ede8" stroke-width="2" opacity="0.35"/>
  <!-- K letterform -->
  <g transform="translate(178.69, 307.20) scale(0.215040, -0.215040)">
    <path d="M685 0V26C637 26 622 32 592 78L369 419L542 592C578 627 616 655 672 657V683L607 681C580 681 533 681 507 683V657C533 655 537 637 537 630C537 623 533 612 529 606L197 273V612C197 657 208 657 277 657V683C248 681 195 681 164 681C133 681 80 681 51 683V657C120 657 131 657 131 612V71C131 26 120 26 51 26V0C80 2 133 2 164 2C195 2 248 2 277 0V26C208 26 197 26 197 71V248L325 375L514 85C520 75 527 62 527 52C527 26 499 26 486 26V0C518 2 564 2 597 2C621 2 662 2 685 0Z" fill="#f0ede8"/>
  </g>
  <!-- Accent dot -->
  <circle cx="418.2" cy="418.2" r="28.2" fill="#c4a06a"/>
</svg>